<svg width="37" height="36" viewBox="0 0 37 36" fill="none" xmlns="http://www.w3.org/2000/svg">
<path d="M12.3468 0.0291824C11.9883 0.0991478 11.6703 0.253654 11.0286 0.667614L10.9158 0.737579L11.0083 0.757986C11.0604 0.769647 11.2714 0.792969 11.4767 0.813375C11.6848 0.833781 11.8525 0.862934 11.8525 0.87751C11.8525 0.889171 11.838 0.900831 11.8236 0.900831C11.8062 0.900831 11.6761 0.985373 11.5345 1.08741C11.1269 1.38476 10.7857 1.77831 10.3174 2.49254C9.94162 3.07267 9.79419 3.43707 9.68145 4.09591C9.62941 4.40492 9.61785 4.58275 9.61785 5.09874C9.61785 5.44273 9.6323 5.90917 9.65254 6.13364C9.68723 6.50679 9.8549 7.55043 9.90115 7.66996C9.9185 7.71077 9.90693 7.72243 9.86068 7.72243C9.66699 7.72243 9.2536 7.256 8.98764 6.73417L8.90381 6.57092L8.91826 7.21227C8.94717 8.27049 9.01655 8.87394 9.20735 9.66105C9.45018 10.6755 9.81732 11.4656 10.4302 12.2877C11.0633 13.1389 11.5489 13.4916 12.4451 13.7569C12.6214 13.8094 12.8585 13.8969 12.9741 13.9522C13.1476 14.0339 13.2025 14.0776 13.2719 14.1884C13.3817 14.3633 13.4598 14.579 13.5031 14.8239L13.5378 15.0192L13.7113 14.8326C13.8067 14.7306 14.2114 14.3108 14.6103 13.9027C15.0122 13.4946 15.3938 13.0893 15.4631 13.0077C15.7291 12.6783 16.024 12.2789 16.076 12.174C16.1078 12.1157 16.1425 12.0661 16.1569 12.0661C16.183 12.0661 16.2697 12.5092 16.3015 12.7949C16.313 12.9057 16.3333 12.9552 16.3622 12.9611C16.4113 12.9669 17.2294 11.3052 17.4318 10.7892C17.955 9.44824 18.195 7.73409 18.1401 5.76924C18.0996 4.36119 17.9753 3.45456 17.744 2.87152C17.666 2.67037 17.6139 2.6004 17.3769 2.34678C17.2237 2.18353 16.9172 1.83661 16.6946 1.57133C16.472 1.30896 16.2292 1.02327 16.154 0.941645C16.076 0.860019 16.0153 0.778393 16.0153 0.760901C16.0153 0.740495 15.9893 0.725919 15.9575 0.725919C15.8997 0.725919 15.8997 0.728834 15.9459 0.833781C16.0355 1.03785 16.1916 1.6996 16.209 1.95031L16.2234 2.1981L15.7493 1.73167C14.9804 0.970797 14.0495 0.317789 13.4511 0.116639C13.1244 0.00586128 12.6503 -0.0320368 12.3468 0.0291824ZM13.0464 1.27689C14.2259 1.78706 14.593 2.0261 15.4631 2.85985C15.7378 3.12222 16.0384 3.405 16.1309 3.48954L16.3015 3.64696L16.3333 3.52161C16.3564 3.4429 16.3766 3.41083 16.394 3.42832C16.4287 3.4633 16.5096 3.81313 16.6744 4.64688C16.871 5.62639 16.8681 5.60307 16.8652 6.48347C16.8623 7.15396 16.8507 7.38427 16.7987 7.78074C16.7004 8.51245 16.3998 9.99338 16.2263 10.6056C16.1743 10.7951 16.1656 10.7834 16.0587 10.4044C16.0153 10.2528 15.9748 10.1158 15.9661 10.1012C15.943 10.0663 15.9054 10.1625 15.9025 10.2528C15.8997 10.3461 15.7175 10.8359 15.5672 11.1507C15.4978 11.2965 15.3591 11.5268 15.2608 11.6609C15.0815 11.9087 14.6942 12.3285 14.645 12.3285C14.6046 12.3285 14.6479 11.8766 14.7115 11.6259C14.7809 11.346 14.963 10.9292 15.0989 10.7251C15.1567 10.6376 15.3157 10.4394 15.4545 10.2878C15.7464 9.9584 15.9372 9.66105 16.0297 9.38993C16.102 9.17129 16.1483 8.72235 16.1049 8.65821C16.076 8.61157 16.024 8.62032 15.1914 8.81564C15.0179 8.85645 14.8445 8.8856 14.8098 8.88269C14.7491 8.87394 14.7491 8.87103 14.83 8.75733C14.9601 8.57367 15.307 7.93233 15.4198 7.66704C15.6308 7.17146 15.7782 6.59133 15.8418 6.0112C15.8881 5.59724 15.865 4.81305 15.7985 4.5157C15.6742 3.95306 15.3706 3.37293 14.963 2.91816C14.7346 2.66454 14.4629 2.42549 14.434 2.45756C14.4195 2.47213 14.6046 2.86277 14.6537 2.92399C14.6971 2.97646 15.255 4.31746 15.3041 4.48363C15.3359 4.59732 15.3504 4.76349 15.3504 5.0521C15.3504 5.4544 15.3359 5.59433 15.2955 5.59433C15.2839 5.59433 15.1856 5.42524 15.0787 5.21535C14.9717 5.00837 14.8705 4.83054 14.8532 4.81888C14.8329 4.80722 14.83 4.84512 14.8416 4.94132C14.8532 5.02003 14.8676 5.39901 14.8763 5.78381C14.9052 7.00529 14.8243 7.31139 14.2866 8.0431C14.0437 8.37252 13.9108 8.51828 13.6939 8.6932C13.4858 8.86228 13.4945 8.86519 13.9194 8.78357C14.0177 8.76608 14.0293 8.76899 14.0033 8.80398C13.9859 8.8273 13.9108 8.9235 13.8356 9.0197C13.6795 9.21794 13.6564 9.24709 13.5639 9.37827L13.4974 9.47156H13.6795C13.8385 9.47156 14.0293 9.44824 14.8532 9.33746C15.0237 9.31705 15.0526 9.35204 14.9283 9.43366C14.8156 9.50654 14.382 10.008 14.2172 10.2528C13.8211 10.8417 13.6448 11.3927 13.5985 12.1594C13.587 12.3343 13.5696 12.4742 13.561 12.4742C13.4829 12.4742 12.7747 12.2468 12.5116 12.1361C11.8149 11.8475 11.4506 11.6317 11.1847 11.349C10.6817 10.8126 10.407 10.0575 10.118 8.43957C10.0833 8.25008 10.063 8.08975 10.0717 8.081C10.0775 8.07517 10.2509 8.10141 10.4533 8.14222C10.8089 8.2151 10.9852 8.23551 10.9852 8.20344C10.9852 8.19178 10.9679 8.14805 10.9447 8.10432C10.8985 8.01687 10.7829 7.57376 10.7135 7.22684C10.6325 6.8158 10.6065 6.44557 10.6007 5.63222L10.595 4.82179L10.7193 4.41366C10.9447 3.67903 11.15 3.25341 11.52 2.75199C11.9276 2.20102 12.2745 1.87451 12.7197 1.62672C12.9857 1.47804 13.003 1.43432 12.8527 1.27106C12.8007 1.21276 12.7602 1.1632 12.7689 1.1632C12.7747 1.1632 12.899 1.21567 13.0464 1.27689Z" fill="#272525"/>
<path d="M22.7365 0.349852C21.8259 0.510188 21.1957 0.784218 20.4816 1.33228C20.0769 1.64421 19.3658 2.41674 19.4843 2.41674C19.519 2.41674 19.8832 2.19518 19.9555 2.13105C20.0422 2.05525 20.0393 2.11356 19.9497 2.24474C19.5595 2.8307 19.1258 3.84811 18.9061 4.70518C18.7038 5.49229 18.4985 6.46014 18.5072 6.59424L18.5159 6.74292L18.6055 6.59715C18.6864 6.4718 18.9235 6.12489 18.9524 6.09282C18.9582 6.08699 18.9726 6.08699 18.9813 6.09574C18.99 6.1074 18.964 6.21526 18.9264 6.34353C18.8512 6.57966 18.6835 7.19186 18.513 7.85361C18.3251 8.5795 18.3164 9.29081 18.487 9.96714C18.5679 10.2936 18.8425 11.0953 18.9322 11.2702C18.9668 11.3402 18.9871 11.3956 18.9755 11.3956C18.9668 11.3956 18.8425 11.2877 18.7009 11.1595C18.5563 11.0283 18.432 10.9292 18.4234 10.9408C18.3916 10.9729 18.4696 11.1595 18.6807 11.5588C19.0276 12.2119 19.4323 12.7249 19.8977 13.101C20.3198 13.445 20.7245 13.652 21.5368 13.9464C22.3462 14.2379 24.26 14.8064 24.4363 14.8064C24.5115 14.8064 24.5202 14.7977 24.5028 14.7393C24.4941 14.7044 24.4768 14.5878 24.4681 14.4799C24.4508 14.305 24.4566 14.2729 24.5231 14.1592C24.6213 13.9931 24.8295 13.7948 25.2544 13.4596C25.9107 12.9436 26.5553 12.1914 27.0381 11.3723C27.3763 10.798 27.8764 9.75142 28.0268 9.29081C28.1684 8.85353 28.1771 8.80106 28.1135 8.80106C28.0904 8.80106 28.0701 8.82146 28.0701 8.84478C28.0701 8.86811 28.0239 8.95556 27.9661 9.03719C27.836 9.22668 27.5353 9.64064 27.4602 9.73392L27.4023 9.8068L27.4139 9.73392C27.4197 9.69311 27.4862 9.46281 27.5584 9.22376C27.7781 8.49496 27.9169 7.90317 28.0123 7.27348C28.0759 6.86827 28.099 6.14821 28.0817 5.32321C28.0615 4.5361 28.0586 4.48654 28.0094 4.48654C27.9661 4.48654 27.9545 4.50986 27.9545 4.59149C27.9545 4.77515 27.6885 5.743 27.518 6.19194C27.3416 6.64963 27.2376 6.80413 27.1884 6.6817C27.1769 6.65254 27.1508 6.36685 27.1277 6.04618C27.0525 4.97046 26.9456 4.32912 26.723 3.6353C26.4484 2.77531 25.8846 1.98237 25.0492 1.27689C24.8873 1.13987 24.789 1.03784 24.789 0.999944C24.789 0.94164 24.8468 0.924149 25.159 0.88625C25.2342 0.87459 25.2949 0.857099 25.2949 0.842523C25.2949 0.784218 24.7688 0.559747 24.4074 0.463545C23.9044 0.329445 23.1441 0.276971 22.7365 0.349852ZM23.4968 1.59756C23.5257 1.61505 23.517 1.62671 23.4621 1.64129C23.3118 1.67919 23.387 1.74041 23.8061 1.92115C24.0374 2.02318 24.3409 2.18061 24.4826 2.27389C24.7861 2.47504 25.1619 2.82195 25.3614 3.08724C25.6013 3.40791 25.8471 3.96472 26.0465 4.65271C26.1304 4.94423 26.2662 5.96747 26.3038 6.57966C26.3443 7.24142 26.379 7.3143 26.6536 7.3143C26.8849 7.3143 26.9225 7.36386 26.9196 7.64372C26.9138 7.93232 26.8242 8.26757 26.671 8.58533C26.5409 8.8477 26.2084 9.34329 26.0379 9.52403C25.9309 9.63481 25.9482 9.66396 26.1419 9.70186C26.22 9.71643 26.2894 9.73392 26.298 9.74267C26.3212 9.76891 26.2344 9.89718 26.0812 10.0604C25.9338 10.2208 25.9309 10.2208 26.2923 10.1683C26.4137 10.1508 26.5206 10.145 26.5264 10.1508C26.5611 10.1858 26.4599 10.486 26.3096 10.798C26.0032 11.4247 25.7025 11.7396 24.604 12.5733C23.8466 13.1476 23.7917 13.1855 23.7714 13.1622C23.757 13.1476 23.6211 12.5238 23.6182 12.4509C23.6182 12.413 23.7541 12.4043 23.9044 12.4334C23.9738 12.448 23.994 12.4684 23.994 12.5209C23.994 12.5675 24.0114 12.5908 24.0461 12.5908C24.0952 12.5908 24.3323 12.2148 24.8844 11.2498C25.4279 10.3053 25.8413 9.35495 25.8442 9.05176C25.8442 9.00221 25.8297 8.99929 25.6794 9.01678C25.5869 9.02844 25.4626 9.04302 25.4019 9.05468L25.292 9.07217L25.3556 8.90017C25.3903 8.80397 25.4799 8.57367 25.5551 8.38418C25.7112 7.99063 25.7141 7.99354 25.3787 8.1014C25.2111 8.15388 25.1272 8.15679 25.1966 8.10723C25.318 8.01978 25.4539 7.59707 25.5002 7.14813C25.5406 6.73708 25.5204 6.11323 25.4539 5.87127C25.3354 5.42232 24.9538 4.81304 24.5404 4.40491C24.2773 4.14837 24.0229 3.95597 24.0229 4.01427C24.0229 4.02885 24.0432 4.06092 24.0692 4.08132C24.153 4.15129 24.5115 4.7081 24.6416 4.97338C24.7832 5.25616 24.9509 5.72551 25.029 6.04326C25.0636 6.19777 25.0781 6.37268 25.0781 6.73125C25.0752 7.27931 25.029 7.50962 24.841 7.88859C24.656 8.26174 24.2166 8.80106 23.8928 9.05468C23.6818 9.22085 23.7396 9.20627 24.5838 8.87102C24.7254 8.81563 24.8468 8.77773 24.8526 8.78356C24.8613 8.7894 24.8439 8.82146 24.8208 8.85061C24.7948 8.87977 24.6329 9.06634 24.4595 9.26749C24.286 9.46864 24.0981 9.67854 24.0403 9.73101C23.916 9.85345 23.9102 9.87677 24.0172 9.85928C24.0779 9.84762 24.8237 9.62315 25.0608 9.54152C25.0926 9.53277 25.0954 9.56484 25.0781 9.72518C25.0174 10.3286 24.8353 10.6435 24.3959 10.9C23.8639 11.209 23.6327 11.3548 23.4563 11.4889C23.3494 11.5676 23.2626 11.6288 23.2598 11.623C23.2569 11.6172 23.1788 11.4189 23.0863 11.1828C22.9909 10.9467 22.9071 10.7455 22.8955 10.7397C22.8608 10.7193 22.7567 10.9583 22.6931 11.1974C22.5949 11.5763 22.5688 11.9553 22.6035 12.4422C22.6209 12.6812 22.6498 12.9436 22.6671 13.0281C22.6845 13.1097 22.6903 13.1855 22.6816 13.1943C22.6035 13.273 20.1955 12.0136 20.0538 11.8212C19.9931 11.7367 20.0104 11.7221 20.1983 11.6988C20.4209 11.6725 20.4209 11.6755 20.2966 11.4918C19.8804 10.8679 19.5653 10.0663 19.4872 9.41325C19.3918 8.6553 19.4901 8.13347 20.0654 6.2794C20.1463 6.02286 20.233 5.75757 20.2562 5.68761C20.2822 5.62056 20.2937 5.55642 20.2851 5.54768C20.2764 5.53893 20.1955 5.54476 20.1029 5.56225C19.7734 5.62347 19.7821 5.69344 20.0191 4.85677C20.2822 3.94431 20.4007 3.60031 20.5944 3.18635C21.002 2.32637 21.2391 2.06691 21.8924 1.78122C22.3087 1.59465 22.4127 1.57424 22.9678 1.57424C23.2395 1.57424 23.4766 1.58299 23.4968 1.59756Z" fill="#272525"/>
<path d="M30.7586 6.83038C30.2845 7.14814 29.767 7.85653 29.3276 8.78065C28.9142 9.64647 28.6772 10.3753 28.5326 11.2061C28.469 11.5618 28.4575 11.6084 28.4344 11.5384C28.3361 11.2323 28.3014 10.9058 28.2783 10.0983L28.258 9.42783L28.1655 9.56776C28.0672 9.72227 27.7868 10.3986 27.6798 10.7543C27.411 11.6317 27.2983 12.5588 27.3272 13.6666C27.3705 15.2758 27.6394 16.2553 28.8767 19.2579C29.0703 19.7244 29.2669 20.2287 29.3132 20.3774C29.4057 20.6631 29.4693 21.0829 29.4172 21.0654C29.3797 21.0537 29.1426 20.7564 29.0125 20.561C28.9576 20.4765 28.8998 20.4007 28.8824 20.392C28.8362 20.3628 28.842 20.5056 28.8882 20.5435C28.9085 20.561 29.0328 20.7972 29.16 21.0654L29.397 21.5551L29.4201 21.9341C29.4462 22.3685 29.4028 22.3335 29.8046 22.2548C30.1082 22.1965 30.4175 22.214 30.8135 22.316C31.3136 22.4443 31.9843 22.4618 32.4382 22.3597C32.6261 22.316 32.9672 22.1906 33.1725 22.0886C33.5251 21.9108 34.2565 21.421 34.2565 21.3627C34.2565 21.3481 34.323 21.2723 34.404 21.1966C34.5687 21.045 34.9474 20.5902 35.1729 20.2724C35.6065 19.6602 36.1095 18.6574 36.4391 17.7362C36.6906 17.0336 37.0057 15.8384 36.9999 15.6023C36.9999 15.5265 36.997 15.5235 36.9652 15.576C36.945 15.6081 36.8727 15.6985 36.8005 15.7801C36.7282 15.8617 36.5865 16.0395 36.4825 16.1736C36.1992 16.538 36.1703 16.573 36.15 16.5497C36.1385 16.538 36.1413 16.471 36.1616 16.3981C36.3293 15.7276 36.4304 14.0484 36.3726 12.9494C36.3206 11.9961 36.2396 11.4335 35.9592 10.0109C35.8205 9.31414 35.7713 9.10716 35.728 9.05468C35.7193 9.04302 35.6673 9.1917 35.6123 9.3841C35.5574 9.57942 35.4996 9.73976 35.4851 9.74268C35.4707 9.74559 35.4302 9.66396 35.3926 9.56485C35.2828 9.25292 34.7393 8.16554 34.5138 7.80989C34.2883 7.4484 34.216 7.28224 34.245 7.19186C34.2768 7.08692 34.4733 7.02278 34.7827 7.02278C34.9359 7.02278 35.0688 7.01112 35.0804 6.99363C35.1035 6.95573 34.9937 6.85078 34.8694 6.79539C34.7248 6.73417 33.9096 6.71085 33.5483 6.76041C32.84 6.85661 32.0971 7.19186 31.3397 7.75158C31.1084 7.92067 30.9581 8.01395 30.9205 8.00812C30.8251 7.99355 30.828 7.78074 30.9292 7.28515C31.0274 6.80997 31.0361 6.70211 30.9812 6.70211C30.961 6.70211 30.8627 6.76041 30.7586 6.83038ZM33.3199 8.44832C33.5396 8.54744 33.8576 8.99638 34.0802 9.5182C34.1409 9.66105 34.2854 10.0604 34.4011 10.4044C34.6352 11.1012 34.6641 11.1711 34.7711 11.2848C34.8231 11.3431 34.8636 11.3606 34.9098 11.349C34.9879 11.3286 35.0399 11.416 35.0891 11.6434C35.225 12.2789 35.2857 14.0893 35.196 14.8647C35.1469 15.2962 35.1209 15.4856 35.0226 16.1037C34.9301 16.6721 34.9185 17.1007 34.9937 17.2144C35.037 17.2814 35.0544 17.2902 35.1527 17.2727C35.2972 17.2494 35.355 17.2756 35.355 17.3572C35.355 17.4797 35.0197 18.1035 34.667 18.6428C34.1062 19.497 33.7362 19.9051 33.2707 20.185C32.9556 20.3715 32.5509 20.5465 32.3833 20.5669L32.2474 20.5844L32.4526 20.3803C32.5654 20.2666 32.7186 20.0771 32.7938 19.9576C32.9354 19.7302 33.3546 18.7711 33.4326 18.4941C33.4586 18.4067 33.4847 18.3338 33.4904 18.3338C33.4962 18.3338 33.5165 18.4096 33.5338 18.5C33.5916 18.7915 33.5887 18.7886 33.661 18.6778C33.6986 18.6253 33.82 18.3338 33.9356 18.0306C34.5947 16.2932 34.7191 15.6897 34.7191 14.2525C34.7191 13.4508 34.6555 12.7279 34.5283 12.1157C34.5051 12.0107 34.4704 12.0224 34.1496 12.2439C34.0108 12.3372 33.8894 12.4159 33.8749 12.4159C33.8634 12.4159 33.8518 12.3256 33.8518 12.2148C33.8518 11.9816 33.7622 11.6842 33.5858 11.3227C33.4355 11.0195 32.9238 10.2295 32.8747 10.2295C32.8545 10.2295 32.8313 10.2091 32.8198 10.1858C32.8024 10.1391 32.6405 10.04 32.6203 10.0633C32.6145 10.0692 32.6666 10.1858 32.7359 10.3199C32.9325 10.6989 33.2592 11.4422 33.3459 11.7163C33.4529 12.0574 33.4702 12.4713 33.4037 13.3546C33.3777 13.7336 33.3575 14.0572 33.3661 14.0776C33.3777 14.1155 33.9877 13.308 34.1785 12.9961C34.2883 12.8241 34.2941 12.8794 34.2739 13.6549C34.2305 15.3253 34.086 15.9725 33.4471 17.3543C33.3835 17.4942 33.3228 17.6079 33.3199 17.6021C33.3141 17.5963 33.2534 17.3805 33.1898 17.124C33.0135 16.4389 33.0106 16.436 32.9672 16.9112C32.9267 17.3281 32.8863 17.5146 32.6926 18.2026C32.4786 18.9577 32.4382 19.0247 31.9496 19.4766C31.3946 19.9926 31.0361 20.2433 30.7326 20.3336C30.6459 20.357 30.5476 20.3978 30.5129 20.4211C30.4493 20.4619 30.4464 20.4619 30.429 20.3832C30.4204 20.3395 30.4059 20.1908 30.3972 20.0538C30.3308 19.1209 30.2614 18.9052 29.4606 17.1561C28.5384 15.1475 28.4459 14.8035 28.4459 13.4217C28.4459 12.9028 28.4575 12.7279 28.5037 12.5063C28.5326 12.3576 28.5673 12.2264 28.576 12.2177C28.602 12.1885 28.6309 12.2468 28.868 12.8241C28.9894 13.1214 29.1137 13.4158 29.1397 13.48L29.1918 13.5937L29.2091 13.3925C29.2698 12.7424 29.4057 11.7717 29.4837 11.4422C29.5965 10.9642 29.7439 10.6522 30.1024 10.1421C30.299 9.86511 30.4637 9.67563 30.5158 9.67563C30.562 9.67563 30.5794 9.75725 30.6025 10.1187C30.6285 10.5065 30.669 10.5298 30.8077 10.2353C31.0506 9.7281 31.4524 9.22377 31.8022 8.98764C32.1896 8.72818 32.9354 8.39585 33.1291 8.39293C33.1696 8.39293 33.2534 8.41917 33.3199 8.44832Z" fill="#272525"/>
<path d="M5.42607 8.82438C5.41739 8.83604 5.42896 8.89434 5.44919 8.95556L5.48677 9.06342H5.23527C4.92306 9.06342 4.64843 9.13047 4.09917 9.33454C3.61062 9.5182 3.62507 9.52403 3.72914 9.18586C3.76094 9.08383 3.78696 8.98763 3.78696 8.97305C3.78696 8.89143 3.36489 9.19461 2.93994 9.5765C2.45428 10.0138 2.16519 10.6201 2.09292 11.3431C2.08136 11.451 2.06401 11.5326 2.04956 11.5239C2.038 11.518 1.97729 11.4189 1.91658 11.3081C1.85587 11.1944 1.80095 11.1041 1.78938 11.1041C1.76337 11.1041 1.68242 11.3723 1.63617 11.6142C1.55812 12.0282 1.5321 12.3314 1.5321 12.8707C1.5321 14.1942 1.77204 15.4623 2.21723 16.4885C2.3531 16.8033 2.69711 17.3893 2.8272 17.5234C2.93416 17.64 2.86478 17.6225 2.7 17.4942C2.25481 17.1473 1.58992 16.3544 1.54077 16.1124C1.5321 16.0658 1.50608 16.0191 1.48295 16.0104C1.4049 15.9812 1.4049 15.9579 1.5321 16.503C1.60726 16.8296 1.60726 16.952 1.5321 16.9928C1.45405 17.0365 1.45694 17.1881 1.54366 17.5758C1.77204 18.5874 2.29239 19.4037 3.12784 20.0567C3.27528 20.1704 3.44295 20.287 3.50365 20.3191C3.7089 20.424 3.61351 20.4269 3.23191 20.3278C3.02377 20.2724 2.83876 20.2287 2.8272 20.2287C2.76649 20.2287 2.85611 20.2928 3.33599 20.5785C3.76094 20.8351 3.83032 20.8875 3.76383 20.8934C3.68578 20.905 3.0469 20.8555 2.80696 20.8205L2.67976 20.803L2.7 20.9167C2.74336 21.1499 3.01221 21.5784 3.30708 21.8874C3.91126 22.523 5.04447 23.1381 6.35114 23.5404C6.72984 23.657 7.24441 23.7269 7.73585 23.7269H8.02783L8.02494 23.1789C8.02204 22.692 8.02783 22.6133 8.08564 22.4297C8.2244 21.9924 8.58287 21.5143 8.89219 21.3569C9.11767 21.2432 9.4241 21.1616 9.63803 21.1616C9.7421 21.1616 9.82882 21.1732 9.82882 21.1878C9.82882 21.2024 9.72475 21.2636 9.59756 21.3248C9.47325 21.3889 9.36918 21.4531 9.36629 21.4706C9.36629 21.5085 9.49927 21.5405 9.65248 21.5405C9.81148 21.5376 9.97626 21.4502 10.1671 21.2607C10.459 20.9692 10.618 20.6135 10.725 20.0159C10.8117 19.532 10.8522 18.4183 10.8146 17.5467C10.7799 16.7946 10.7423 16.4826 10.6383 16.1007C10.5631 15.8296 10.1844 14.8443 10.1439 14.821C10.1295 14.8093 10.1179 14.7802 10.1179 14.7539C10.1179 14.7248 10.1439 14.7423 10.1902 14.8064C10.2306 14.8618 10.274 14.9113 10.2856 14.9201C10.3116 14.9405 10.6209 15.3195 10.725 15.4623C10.7655 15.5177 10.8059 15.5614 10.8175 15.5643C10.9187 15.5673 10.9187 14.7044 10.8175 14.3691C10.5544 13.4916 10.0341 12.5442 9.37207 11.7279C8.55685 10.7251 7.28199 9.7106 5.97533 9.0197C5.58795 8.81563 5.45787 8.76899 5.42607 8.82438ZM5.94642 10.9554C6.42919 11.0574 6.94087 11.3402 7.74741 11.9582C8.29089 12.3722 8.31402 12.3955 8.63201 12.824C9.03962 13.3692 9.2044 13.719 9.23909 14.1067C9.26222 14.337 9.23042 14.4158 9.09744 14.4507C9.01071 14.4741 9.00493 14.4828 8.99626 14.6198C8.99048 14.7335 9.02806 14.888 9.17549 15.3457C9.52239 16.436 9.56865 16.678 9.56865 17.4476C9.56865 18.121 9.5195 18.4737 9.30847 19.3075C9.24776 19.5465 9.2362 19.5669 9.14658 19.6048C9.09744 19.6252 9.00204 19.6515 8.93844 19.6631C8.84304 19.6777 8.81414 19.669 8.7621 19.6136C8.71007 19.5582 8.70139 19.5115 8.70139 19.3279C8.70428 19.0539 8.7303 18.9285 8.87484 18.5379C8.93555 18.3688 8.99915 18.1793 9.0165 18.1152C9.06275 17.9315 9.09166 17.4417 9.05408 17.4184C9.03673 17.4097 8.9529 17.5292 8.85461 17.707C8.7621 17.8732 8.67827 18.0131 8.66959 18.0131C8.65803 18.0131 8.64936 17.8061 8.64647 17.5525C8.63201 16.2319 8.52505 15.6635 8.13768 14.8414C7.9729 14.4974 7.54795 13.7598 7.44966 13.6491C7.41786 13.6112 7.40051 13.5733 7.40919 13.5616C7.42075 13.5499 7.63756 13.5937 7.89196 13.6549C8.14635 13.7161 8.36316 13.7569 8.37184 13.7482C8.40364 13.719 8.32558 13.5324 8.20706 13.3459C8.05095 13.1068 7.53349 12.5704 7.22706 12.3401C6.9322 12.1127 6.55639 11.9145 6.05338 11.7163C5.71515 11.5822 5.37692 11.5005 5.37692 11.553C5.37692 11.5647 5.46365 11.6142 5.5735 11.6638C5.81922 11.7775 6.56795 12.206 6.85125 12.3955C7.12588 12.5792 7.41497 12.8328 7.52193 12.9815C7.66936 13.1855 7.67225 13.1855 7.06518 13.1622L6.52459 13.1418L6.65468 13.3255C6.9322 13.719 7.46122 14.6869 7.66936 15.1854C8.04228 16.0687 8.13768 16.7508 8.02204 17.6633C7.97579 18.0452 7.82258 18.6953 7.75898 18.7915C7.7214 18.8498 7.7214 18.8585 7.75898 18.8585C7.79656 18.8585 7.96712 18.8148 8.17526 18.7536C8.2562 18.7303 8.2562 18.7623 8.16948 18.8556C8.06541 18.9722 7.90063 19.4212 7.86305 19.704C7.80234 20.1646 7.76765 20.2403 7.46122 20.5931C7.18081 20.9138 6.88016 21.5784 6.88016 21.87C6.88016 21.9516 6.87727 21.9545 6.7732 21.937C6.51302 21.8904 6.01002 21.7329 5.79609 21.6309C5.58217 21.5289 4.79586 21.0245 4.75828 20.9633C4.74961 20.9487 4.84501 20.9254 4.9722 20.9167C5.24105 20.8904 5.24394 20.8875 5.11675 20.6368C4.98377 20.3686 4.97799 20.3744 5.34801 20.3744C5.58506 20.3744 5.66601 20.3657 5.66601 20.3366C5.66601 20.3191 5.61108 20.2841 5.54459 20.2637C5.30176 20.1879 4.57905 19.873 4.39403 19.7623C4.07026 19.5699 3.61351 19.1063 3.61351 18.9722C3.61351 18.9198 3.63663 18.9168 3.94595 18.9168C4.13097 18.9168 4.2784 18.9052 4.2784 18.8906C4.2784 18.8381 4.13386 18.6895 4.05002 18.6545C4.00088 18.6341 3.95463 18.5962 3.94595 18.5699C3.93728 18.5437 3.85634 18.4679 3.76383 18.4008C3.67421 18.3309 3.55569 18.2376 3.50076 18.191C3.40537 18.1122 3.40247 18.1064 3.46029 18.0773C3.49787 18.0569 3.79563 18.0364 4.22347 18.0277C4.90571 18.0102 5.23238 17.9781 5.23238 17.9257C5.23238 17.9111 5.20636 17.8907 5.17456 17.8819C5.08206 17.8528 4.48943 17.4155 4.25816 17.2056C4.02112 16.9928 3.74359 16.6663 3.54413 16.366C3.20301 15.853 3.03823 15.3195 2.97752 14.5149C2.94283 14.063 2.93994 12.6783 2.97174 12.6783C2.98619 12.6783 3.05268 12.7162 3.11628 12.7657C3.18277 12.8124 3.24059 12.8532 3.24637 12.8532C3.24926 12.8532 3.24348 12.7308 3.22902 12.5821C3.17988 12.0428 3.24059 11.6988 3.44295 11.3664L3.54124 11.2061L3.55858 11.2936C3.57014 11.3402 3.57882 11.4452 3.58171 11.5268C3.5846 11.6055 3.59327 11.7017 3.60194 11.7396C3.61929 11.7979 3.62796 11.7891 3.68578 11.6667C3.8361 11.3519 4.17144 11.0224 4.40849 10.9554C4.74961 10.8592 5.48677 10.8592 5.94642 10.9554Z" fill="#272525"/>
<path d="M16.7092 14.7656C16.1975 14.8414 15.4372 15.0046 15.4372 15.0396C15.4372 15.0513 15.4979 15.0775 15.5759 15.0979C15.7696 15.1504 15.7754 15.1679 15.6048 15.2145C15.0354 15.3574 14.5439 15.5877 14.119 15.9083C13.8125 16.1386 13.1968 16.7508 12.9857 17.0365C12.5521 17.6225 12.2948 18.3775 11.9393 20.0975C11.8728 20.4182 11.7947 20.7709 11.7629 20.8846C11.6357 21.3306 11.4796 21.7504 11.4478 21.73C11.4363 21.7213 11.4189 21.6134 11.4073 21.491C11.3958 21.3656 11.3755 21.217 11.364 21.1616L11.3409 21.0595L11.3177 21.1761C11.2744 21.4006 11.0315 21.8262 10.8003 22.0915C10.5979 22.3189 10.3666 22.5201 9.66995 23.0681C8.29968 24.1438 7.92677 24.5432 7.50181 25.4032C7.02193 26.3769 6.91208 27.2544 7.14335 28.2455C7.36016 29.1667 7.97302 30.2716 8.53384 30.7585C8.79113 30.98 8.87785 31.0266 9.31437 31.1899C9.82894 31.3823 9.92723 31.4319 10.3233 31.7001C10.4967 31.8196 10.6528 31.9187 10.6673 31.9187C10.6817 31.9187 10.6557 31.8575 10.6095 31.7817C10.5141 31.6214 10.2828 31.2191 10.2655 31.1812C10.2597 31.1666 10.3001 31.1782 10.3522 31.2074C10.4071 31.2336 10.6991 31.3415 10.9997 31.4464C11.5114 31.6214 11.5721 31.633 11.867 31.6476C12.2833 31.668 12.3469 31.6534 12.1272 31.5864C11.8265 31.496 11.3437 31.2511 11.3062 31.1724C11.2657 31.082 11.2657 31.015 11.3062 31.015C11.3958 31.015 12.5232 31.4552 12.8065 31.6039C13.1968 31.805 13.4541 31.9916 13.9253 32.4201C14.4023 32.8545 14.7058 33.1052 15.0758 33.3734C15.9922 34.0352 16.8681 34.4783 17.4723 34.589C17.7845 34.6473 18.6663 34.6444 19.0594 34.5861C19.7041 34.4899 20.2793 34.2742 20.4701 34.0556L20.5655 33.9448L20.4933 33.936C20.4528 33.9302 20.3227 33.9652 20.2042 34.0147C19.9411 34.1226 19.7301 34.1547 19.2097 34.178L18.805 34.1926L19.3109 33.9739C20.3863 33.5046 20.8893 33.2247 21.8664 32.5484C22.1208 32.3735 22.4388 32.1607 22.5776 32.079C23.2107 31.6942 24.5896 30.9858 24.7023 30.9858C24.7081 30.9858 24.6821 31.0412 24.6416 31.1112C24.5636 31.257 24.4248 31.668 24.3583 31.9566C24.3323 32.0645 24.3063 32.3385 24.2976 32.5688C24.2803 33.0207 24.2687 33.009 24.4422 32.7379C24.7052 32.3239 25.4048 31.8138 26.0466 31.5718C26.4513 31.4173 26.6941 31.3561 27.2607 31.2657C28.3275 31.0908 28.6223 31.0033 29.0704 30.7235C29.3797 30.534 29.5214 30.3882 29.6457 30.1375C29.8394 29.7527 29.8712 29.569 29.8712 28.8432C29.8741 28.3563 29.8625 28.1493 29.8278 27.9832C29.8018 27.8636 29.7816 27.7616 29.7844 27.7587C29.7873 27.7587 29.8625 27.7849 29.9492 27.8228L30.1082 27.8899L30.1169 27.8112C30.1227 27.7674 30.0851 27.6275 30.0359 27.5022C29.9868 27.3768 29.9492 27.2485 29.955 27.2135C29.9637 27.1582 29.9752 27.164 30.0938 27.2689C30.166 27.3331 30.2846 27.438 30.3626 27.4963L30.4985 27.6071V27.2165C30.4985 26.7588 30.4522 26.4614 30.3077 25.9833C30.1111 25.3274 29.8885 24.826 29.5272 24.2196C29.3364 23.899 28.605 22.8203 28.154 22.1965C28.0152 22.0041 27.9083 21.8408 27.9141 21.835C27.9227 21.8262 28.0702 21.8058 28.2436 21.7854C28.42 21.765 28.5761 21.7388 28.5934 21.7271C28.6108 21.7184 28.5501 21.6601 28.4518 21.5988C28.2725 21.4852 27.9632 21.147 27.7955 20.8846C27.6568 20.666 27.4862 20.2637 27.2752 19.6544C26.7895 18.2609 26.5207 17.6575 26.1593 17.1619C25.5869 16.3806 24.6272 15.9754 23.1413 15.885C22.5747 15.85 22.54 15.8413 22.5602 15.7509C22.5862 15.646 22.5024 15.6401 21.7999 15.681C21.4559 15.7014 20.8055 15.7218 20.3516 15.7218C19.6058 15.7247 19.5191 15.7189 19.4468 15.6722C19.3947 15.6401 19.3687 15.5964 19.3687 15.5469C19.3687 15.474 19.3947 15.4565 19.7561 15.3049C19.8168 15.2816 19.8313 15.2612 19.8081 15.2378C19.7734 15.2029 19.1172 15.025 18.5448 14.8939C17.7643 14.716 17.2786 14.681 16.7092 14.7656ZM17.7932 16.8033C17.932 16.8296 18.0823 16.8675 18.1314 16.8937C18.2095 16.9345 18.2182 16.9491 18.2037 17.0424C18.1661 17.2668 18.2991 17.4097 18.7212 17.6079C19.1432 17.8091 19.2242 17.8178 20.5626 17.8003C21.8664 17.7857 21.8259 17.7799 21.7132 17.9665C21.6785 18.0219 21.6612 18.0744 21.6727 18.0802C21.6872 18.0889 21.8664 18.0394 22.0746 17.9694C22.5458 17.812 22.7741 17.777 23.2714 17.7799C23.9999 17.7828 24.315 17.9111 24.8584 18.4358C25.2892 18.8498 25.4482 19.1763 25.7286 20.2287C25.8818 20.8001 25.9917 21.1412 26.0871 21.3306C26.1651 21.4881 26.1593 21.5114 26.0235 21.5551C25.8818 21.5988 25.8847 21.7708 26.035 22.0303C26.2171 22.3451 26.8849 23.2051 27.174 23.4937C27.3648 23.6861 27.7406 24.1992 27.9141 24.5082C27.9834 24.6307 28.102 24.8755 28.1742 25.0505C28.3043 25.3595 28.4749 25.9658 28.4749 26.1203C28.4749 26.1961 28.4662 26.1991 28.2812 26.2165C28.1714 26.2282 28.0239 26.2486 27.9488 26.2661L27.81 26.2982L28.0413 26.5489L28.2725 26.8025L28.0702 26.8113L27.8678 26.82L27.8852 26.8987C27.8938 26.9424 27.9256 27.0765 27.9545 27.1961C28.1193 27.8695 28.154 28.3826 28.0586 28.7411C27.9198 29.2775 27.6626 29.5195 26.9861 29.7614C26.5062 29.9305 26.3154 29.9626 25.6505 29.983C25.3123 29.9947 25.0348 29.9947 25.0348 29.983C25.0348 29.9393 25.1099 29.8198 25.4019 29.4204C25.5638 29.193 25.6997 28.9918 25.6997 28.9714C25.6997 28.916 24.9914 28.9598 24.6763 29.0356C23.9189 29.2134 23.5055 29.3796 22.8031 29.7789C22.6787 29.8489 22.5631 29.9072 22.5458 29.9072C22.4995 29.9072 22.5313 29.1172 22.5891 28.8519C22.6469 28.5895 22.8349 28.1901 22.9447 28.0969C23.0661 27.9919 23.4651 27.7995 23.7946 27.6858C24.049 27.5984 24.0953 27.5925 24.5433 27.5809C24.8064 27.575 25.0724 27.5838 25.136 27.5954L25.2516 27.6217L25.2603 27.9336C25.2661 28.1173 25.2805 28.2455 25.2979 28.2455C25.3557 28.2455 25.5985 28.1027 25.6592 28.0356C25.7835 27.8957 25.8298 27.7237 25.8269 27.4293C25.8269 27.2048 25.8124 27.1232 25.7575 26.992C25.6448 26.7296 25.3152 26.2632 25.24 26.2632C25.2053 26.2632 25.1389 26.1786 25.1591 26.1582C25.1678 26.1495 25.295 26.1553 25.4424 26.1728C25.5898 26.1903 25.717 26.1961 25.7257 26.1874C25.7344 26.1816 25.532 25.9629 25.2805 25.7093C25.0261 25.4528 24.8295 25.2429 24.8411 25.2429C24.8527 25.2429 24.9105 25.2633 24.9712 25.2895C25.162 25.3711 26.6594 25.9425 26.6855 25.9425C26.7375 25.9425 26.7057 25.858 26.4918 25.4236L26.2721 24.9776L26.0524 24.8143C25.691 24.5461 25.399 24.3654 24.7023 23.9747C24.3381 23.7707 23.8495 23.4996 23.6183 23.3713C22.8435 22.9369 22.5833 22.7445 22.3579 22.4355C22.1844 22.1994 22.1237 22.0128 22.089 21.6193C22.0485 21.1499 22.0428 21.1616 22.2972 21.2082C22.6643 21.2782 22.751 21.2869 22.751 21.2607C22.751 21.2461 22.6932 21.1965 22.6209 21.1528C22.4157 21.0216 22.0717 20.631 21.9676 20.4124C21.878 20.2229 21.8751 20.2112 21.8924 19.9109C21.9011 19.7185 21.9242 19.5553 21.956 19.4795C22.0225 19.3104 22.0023 19.2725 21.8924 19.3658C21.7248 19.5086 21.7016 19.6019 21.6785 20.2141C21.6612 20.7097 21.6525 20.7797 21.5947 20.8904C21.534 21.01 21.5311 21.042 21.5426 21.5172C21.56 22.1294 21.6005 22.2839 21.8549 22.6746C22.2046 23.211 22.8638 23.7619 23.8293 24.3246C24.0172 24.4324 24.1589 24.5316 24.1473 24.5432C24.1357 24.5549 23.971 24.5869 23.7859 24.6161C23.6009 24.6452 23.4333 24.6773 23.4159 24.689C23.3841 24.7094 23.8727 25.3566 24.0201 25.4877C24.0519 25.5198 24.0808 25.5519 24.0808 25.5635C24.0808 25.5752 23.9536 25.5927 23.8004 25.6044C23.6443 25.616 23.4766 25.6306 23.4246 25.6393L23.3321 25.6568L23.4679 25.7559C23.5431 25.8084 23.7599 25.96 23.9478 26.0912C24.5115 26.476 24.5318 26.4964 24.3786 26.4964C24.1964 26.4993 23.2598 26.6422 22.991 26.7121C22.5544 26.8229 22.3694 26.8929 21.956 27.0969C21.0628 27.5401 20.3545 28.2251 20.0914 28.9015C20.0307 29.053 20.0221 29.1259 20.0221 29.4699C20.0192 29.9305 20.0568 30.0588 20.2938 30.397C20.4268 30.5894 20.8344 30.9917 20.9645 31.0616C21.0194 31.0908 20.9934 31.117 20.6494 31.3473C20.2157 31.633 19.3745 32.0616 18.9322 32.2219C18.7674 32.2802 18.4437 32.3793 18.2124 32.4434C17.9811 32.5047 17.8077 32.5571 17.825 32.5571C17.8915 32.563 18.3772 32.6504 18.5101 32.6796C18.6142 32.7058 18.6431 32.7204 18.6171 32.7466C18.5969 32.767 18.409 32.7787 18.0447 32.7787C17.1283 32.7758 17.1515 32.7874 15.6656 31.5047C14.3762 30.3911 14.064 30.1492 13.4338 29.776C13.1187 29.5924 12.4423 29.2571 12.1272 29.1347C11.8034 29.0064 11.1269 28.7703 11.0836 28.7703C11.0547 28.7703 11.0431 28.8169 11.0431 28.9452C11.0431 29.0414 11.0373 29.1201 11.0286 29.1201C11.02 29.1201 10.8754 29.056 10.7078 28.9743L10.4042 28.8315L10.3493 28.9539C10.3175 29.021 10.2915 29.0939 10.2915 29.1114C10.2915 29.1901 10.1643 29.1434 10.0544 29.0268C9.90989 28.8665 9.75089 28.5371 9.69885 28.2834C9.59767 27.7966 9.61791 26.9104 9.74511 26.4119C9.89543 25.8172 10.6673 24.619 11.1009 24.3042C11.5316 23.9981 11.6675 23.8785 11.8207 23.6832C12.0029 23.4471 12.026 23.4471 12.026 23.6774C12.026 23.7444 12.0404 23.8202 12.0549 23.8436C12.078 23.8785 12.0983 23.8698 12.1705 23.7853C12.3122 23.622 12.5174 23.2926 12.636 23.0419C12.7574 22.7795 13.0291 21.9574 13.3991 20.7243C13.6853 19.7798 13.7836 19.4795 13.9282 19.1063C14.2693 18.223 14.5873 17.8382 15.2435 17.5059C15.6684 17.2931 15.9864 17.191 16.5935 17.0686C16.8653 17.0132 17.0965 16.9607 17.1081 16.9491C17.1168 16.9403 17.111 16.9054 17.0907 16.8733C17.0705 16.8412 17.0618 16.8033 17.0705 16.7887C17.0965 16.745 17.5099 16.7538 17.7932 16.8033Z" fill="#272525"/>
<path d="M0.00289084 25.8026L0 36H9.08592C14.0813 36 18.1487 35.9883 18.1256 35.9738C18.1025 35.9592 18.0186 35.9388 17.9377 35.93C17.7469 35.9038 17.319 35.7872 16.9403 35.6589C16.0876 35.3703 14.7838 34.5774 13.5956 33.6183C12.7862 32.9682 12.5289 32.8282 11.997 32.7525C11.9247 32.7408 11.838 32.7262 11.8033 32.7146C11.7021 32.6912 11.7166 32.7933 11.8814 33.2335C11.9594 33.4463 12.0201 33.627 12.0115 33.6328C12.0057 33.6416 11.8467 33.5862 11.6617 33.5104C11.4738 33.4375 11.3205 33.3792 11.3148 33.3851C11.309 33.3909 11.2859 33.5891 11.2627 33.8253C11.2396 34.0643 11.2136 34.2625 11.2078 34.2713C11.1991 34.2771 11.1298 34.1867 11.0546 34.0701C10.8754 33.799 10.4851 33.388 10.1931 33.1664C10.0688 33.0731 9.64386 32.802 9.25359 32.5688C8.05967 31.8546 7.97873 31.7992 7.5769 31.4115C6.84552 30.6972 6.40033 29.8722 6.09679 28.6507C5.91178 27.8957 5.85396 27.4205 5.87709 26.7384C5.88865 26.3506 5.9031 26.2078 5.95225 26.0562C6.01585 25.8521 6.17773 25.581 6.34251 25.3945C6.45815 25.2691 6.44947 25.237 6.28759 25.1962C6.13148 25.1583 5.40877 24.8376 4.99538 24.6278C3.28689 23.7532 2.01781 22.66 1.5784 21.6834C1.39339 21.2694 1.32979 20.8671 1.41651 20.6806C1.44831 20.6164 1.49746 20.5814 1.60442 20.5435C1.801 20.4794 1.80678 20.4182 1.61887 20.2608C1.54082 20.1937 1.47433 20.1267 1.47433 20.1121C1.47433 20.1004 1.52637 20.08 1.58996 20.0713C1.65356 20.0625 1.75763 20.045 1.82123 20.0363C1.89928 20.0246 1.93687 20.0042 1.93687 19.9751C1.93687 19.9488 1.84147 19.8293 1.72583 19.704C1.30955 19.2667 0.875926 18.6691 0.664894 18.2493C0.47988 17.8761 0.355574 17.4039 0.10407 16.1037L0.00578169 15.6081L0.00289084 25.8026Z" fill="#272525"/>
</svg>
